<svg id="Layer_1" data-name="Layer 1" xmlns="http://www.w3.org/2000/svg" viewBox="0 0 94.51 59.27"><defs><style>.cls-1{fill:#d2e5b3;}.cls-2{fill:none;stroke:#3d4752;stroke-miterlimit:10;stroke-width:0.9px;}.cls-3{fill:#3d4752;}</style></defs><title>erd-symbols</title><path class="cls-1" d="M94.24,29.63c0,16.11-21,29.16-47,29.16S.28,45.74.28,29.63,21.34.47,47.26.47,94.24,13.52,94.24,29.63Z"/><path class="cls-2" d="M93.56,24.64l.18.77.18.9.18.86.09.9,0,.85v1.57l-.09.9-.09.9-.14.86-.23.9-.14.58M85.1,12.35l.5.4,1.17,1.08,1.08,1.08.9,1,.85,1,.72,1L91,19l.58.95,0,.09M72,4.84l.81.32,2.39,1,2.2,1.08,2,1.08,1.62,1M57.34,1.15l.63.09,3.33.54,3.15.72,2.79.72M42.22.65,44.33.52l2.92,0,3.69.09L52.3.65m-25,2.57.36-.09,3-.81,3.2-.67,3.29-.5M13.51,9.34l.18-.09,1.85-1.12,2-1.08L19.81,6l2.43-1,.27-.09M2.93,20l.13-.27.58-1,.68-1,.76-1,.86-1,.95-1L8,13.61l1.21-1.08.27-.18M1,34.63l-.18-.77L.59,33l-.13-.85-.09-.9-.09-.86v-.72l0-.9,0-.86L.46,27l.18-.86.18-.9L1,24.64M9.46,46.91l-.54-.4L7.75,45.43l-1-1.08-.94-1-.86-1-.72-1-.67-1-.58-.94v-.09M22.51,54.43l-.81-.31-2.39-1L17.15,52l-2-1.08-1.62-1m23.67,8.23L36.55,58l-3.33-.59-3.15-.67L27.32,56m25,2.57-2.11.13-2.93,0-3.65-.09-1.39-.09m25-2.61-.4.14-3,.76-3.19.67-3.29.54M81,49.88l-.18.13L79,51.14l-2,1.08L74.75,53.3l-2.43,1-.32.14M91.63,39.26l-.18.27-.59.95-.67,1-.76,1-.86,1-.94,1.08-1.08,1-1.21,1.08-.23.22"/><path class="cls-3" d="M19.22,29.2c0-1.46-.95-2.13-2.4-2.17h-1v4.33h1c1.44,0,2.4-.72,2.4-2.16M17,26.33c1.84.09,3.09,1,3.09,2.87a2.67,2.67,0,0,1-2,2.69,12,12,0,0,1-3.07.18V26.33Z"/><path class="cls-3" d="M22.87,28.12c1.3,0,1.9.87,1.84,2.25h-3a1.2,1.2,0,0,0,1.25,1.17A1.28,1.28,0,0,0,24,31l.53.43a1.92,1.92,0,0,1-1.65.79,1.86,1.86,0,0,1-2-2,1.86,1.86,0,0,1,2-2m1.08,1.68a1.07,1.07,0,0,0-1.54-1,1.12,1.12,0,0,0-.75,1Z"/><path class="cls-3" d="M25.78,32.06c0-1.28,0-2.61,0-3.84h.72c0,.16,0,.48,0,.65h0A1.3,1.3,0,0,1,28,28.15l0,.7A1.1,1.1,0,0,0,26.54,30v2h-.76"/><path class="cls-3" d="M29.1,26.34a.5.5,0,0,1,.51.49.51.51,0,1,1-.51-.49m.38,5.72h-.76V28.22h.76v3.84Z"/><path class="cls-3" d="M32.61,32.06h-.83l-1.56-3.84h.84c.38,1,.74,2,1.14,3l1.13-3h.81"/><path class="cls-3" d="M36.62,28.12c1.3,0,1.9.87,1.84,2.25h-3a1.2,1.2,0,0,0,1.25,1.17A1.28,1.28,0,0,0,37.78,31l.53.43a1.92,1.92,0,0,1-1.65.79,1.86,1.86,0,0,1-2-2,1.86,1.86,0,0,1,2-2M37.7,29.8a1.07,1.07,0,0,0-1.54-1,1.12,1.12,0,0,0-.75,1Z"/><path class="cls-3" d="M41.34,28.75a1.23,1.23,0,0,0-1.27,1.39,1.23,1.23,0,0,0,1.27,1.39,1.39,1.39,0,0,0,0-2.78m-.14-.63a1.7,1.7,0,0,1,1.39.68V25.94h.76v6.12h-.74a3.73,3.73,0,0,0,0-.61,1.6,1.6,0,0,1-1.39.71,1.84,1.84,0,0,1-1.94-2A1.86,1.86,0,0,1,41.2,28.12Z"/><path class="cls-3" d="M47.83,29.95H50l-1.07-2.69M47,32.06h-.89l2.49-5.73h.73l2.46,5.73h-.91l-.58-1.41H47.55Z"/><path class="cls-3" d="M53.68,32.13c-.75,0-1.13-.43-1.12-1.2V28.85h-.74v-.62h.74v-1.1h.75v1.1h1v.62h-1v2c0,.44.13.64.54.65a1.09,1.09,0,0,0,.45-.1l0,.62a1.94,1.94,0,0,1-.65.11"/><path class="cls-3" d="M56.22,32.13c-.75,0-1.13-.43-1.12-1.2V28.85h-.74v-.62h.74v-1.1h.75v1.1h1v.62h-1v2c0,.44.13.64.54.65a1.09,1.09,0,0,0,.45-.1l0,.62a1.94,1.94,0,0,1-.65.11"/><path class="cls-3" d="M57.66,32.06c0-1.28,0-2.61,0-3.84h.72c0,.16,0,.48,0,.65h0a1.3,1.3,0,0,1,1.47-.72l0,.7A1.1,1.1,0,0,0,58.43,30v2h-.76"/><path class="cls-3" d="M61,26.34a.5.5,0,0,1,.51.49.51.51,0,1,1-.51-.49m.38,5.72H60.6V28.22h.76v3.84Z"/><path class="cls-3" d="M64.72,31.53A1.24,1.24,0,0,0,66,30.14a1.23,1.23,0,0,0-1.28-1.39,1.39,1.39,0,0,0,0,2.78m.13.64a1.62,1.62,0,0,1-1.39-.71h0v.61h-.74V25.94h.76V28.8h0a1.6,1.6,0,0,1,1.37-.68,1.85,1.85,0,0,1,1.92,2A1.84,1.84,0,0,1,64.85,32.17Z"/><path class="cls-3" d="M71.24,28.22c0,1.28,0,2.61,0,3.84h-.72c0-.16,0-.49,0-.63a1.41,1.41,0,0,1-1.26.74,1.36,1.36,0,0,1-1.43-1.56V28.22h.76v2.12c0,.68.19,1.18.87,1.18s1-.57,1-1.26v-2h.76"/><path class="cls-3" d="M73.78,32.13c-.75,0-1.13-.43-1.12-1.2V28.85h-.74v-.62h.74v-1.1h.75v1.1h1v.62h-1v2c0,.44.13.64.54.65a1.09,1.09,0,0,0,.45-.1l0,.62a1.94,1.94,0,0,1-.65.11"/><path class="cls-3" d="M77,28.12c1.3,0,1.9.87,1.84,2.25h-3A1.2,1.2,0,0,0,77,31.54,1.28,1.28,0,0,0,78.12,31l.53.43a1.92,1.92,0,0,1-1.65.79,1.86,1.86,0,0,1-2-2,1.86,1.86,0,0,1,2-2M78,29.8a1.07,1.07,0,0,0-1.54-1,1.12,1.12,0,0,0-.75,1Z"/></svg>