<?xml version="1.0" encoding="utf-8"?>
<svg viewBox="0 0 500 500" xmlns="http://www.w3.org/2000/svg">
  <g transform="matrix(0.99270498752594, 0, 0, 0.99270498752594, -4.611623901475184, -23.242201544111936)" style="">
    <path fill="#042953" d="M 133.734 453.449 C 135.342 450.666 139.462 446.851 143.039 447.604 L 143.318 447.66 C 150.256 449.154 149.006 451.663 158.409 451.617 L 320.601 451.515 C 325.416 451.407 333.994 449.218 337.193 454.103 C 338.384 455.921 338.068 457.705 338.453 459.713 L 338.262 460.892 C 337.22 464.49 334.078 466.636 330.492 466.716 L 156.31 466.645 C 150.197 466.329 130.284 463.053 133.734 453.449 Z" style=""/>
    <path fill="#042953" d="M 386.986 288.229 C 398.595 285.984 396.674 300.594 397.419 307.804 C 407.023 307.911 416.739 310.915 423.564 317.908 C 433.952 328.553 434.907 340.476 435.924 354.506 L 438.308 381.062 C 438.664 384.538 439.14 388.027 439.084 391.527 C 438.766 410.865 426.066 426.096 408.137 431.994 C 401.711 434.109 404.731 432.779 400.963 439.84 C 393.137 454.505 378.467 466.249 361.389 466.979 C 355.948 467.212 353.388 465.377 352.217 459.687 C 353.261 453.923 354.011 452.407 359.526 451.82 C 379.275 449.719 391.156 436.044 390.955 416.638 C 390.889 410.258 390.166 403.95 389.522 397.608 L 386.837 367.593 C 386.142 360.177 386.929 358.594 394.222 355.52 L 392.471 338.791 C 389.57 338.322 385.696 336.588 384.917 333.456 L 384.853 333.182 C 384.555 331.928 384.528 330.635 384.428 329.354 L 381.747 298.994 C 380.572 292.668 380.476 292.221 386.986 288.229 Z" style=""/>
    <path d="M 392.471 338.791 L 392.693 338.729 C 399.964 336.588 399.588 329.406 399.041 323.618 C 420.42 325.8 419.06 339.895 420.988 357.931 L 422.705 375.253 C 424.065 388.883 425.665 402.856 413.523 412.443 C 411.849 413.765 409.851 415.307 407.836 416.012 C 405.775 416.734 405.901 417.865 405.867 415.037 C 405.849 413.54 405.879 412.017 405.731 410.526 L 401.602 363.745 C 401.245 359.215 399.697 355.817 394.222 355.52 L 392.471 338.791 Z" style="fill: rgb(130, 211, 247);"/>
    <path fill="#042953" d="M 87.267 339.816 C 84.216 338.541 81.507 335.998 81.954 332.446 L 82.001 332.097 C 82.491 328.352 84.874 324.52 86.929 321.448 C 93.892 311.038 105.138 307.867 116.934 307.815 C 117.427 305.558 117.33 302.938 117.594 300.621 L 119.868 281.314 C 124.16 249.085 130.944 207.532 146.691 179.058 C 159.605 155.705 177.389 147.681 202.752 141.62 C 203.867 141.353 206.453 141.723 206.452 140.327 C 206.442 133.588 206.688 127.298 208.553 120.761 C 219.3 83.104 264.074 70.832 291.844 98.692 C 304.177 111.063 306.867 124.427 306.826 140.855 C 307.766 141.177 308.615 141.288 309.583 141.459 C 323.401 143.905 343.735 152.063 353.675 161.381 C 370.042 176.724 380.143 210.039 384.529 231.024 L 389.655 258.339 C 390.592 263.175 391.061 265.96 386.131 268.937 L 385.955 269.04 C 385.34 269.414 384.815 269.603 384.114 269.774 L 383.916 269.736 C 374.263 267.841 375.373 261.544 373.995 253.926 L 368.613 227.857 C 365.92 216.902 362.87 205.785 358.004 195.565 C 353.579 230.514 329.677 259.151 292.737 261.268 L 280.68 261.363 C 278.682 261.4 279.338 262.136 278.984 264.007 C 276.97 274.619 266.271 285.169 254.986 283.641 C 244.231 282.184 236.077 273.677 234.571 263.049 C 234.501 262.551 234.352 262.076 234.202 261.598 C 229.714 261.137 225.151 261.415 220.643 261.301 C 202.001 260.827 182.818 250.543 171.177 236.157 C 162.751 225.743 156.205 208.745 155.731 195.076 C 147.951 210.878 144.469 227.963 141.144 245.125 L 132.801 298.564 L 122.94 412.024 C 122.482 419.979 122.841 425.289 125.084 432.85 C 125.831 435.368 127.38 438.543 126.92 441.175 L 126.48 442.183 C 125.081 444.308 123.561 446.009 121.342 447.294 C 114.058 446.188 111.185 438.681 109.124 432.534 L 108.739 432.57 C 107.524 432.663 106.281 432.161 105.133 431.82 C 87.867 426.706 75.479 411.943 73.995 393.806 C 73.496 387.7 74.7 381.317 75.314 375.249 C 76.17 366.794 74.287 355.402 85.385 355.15 C 85.082 353.213 86.423 342.013 87.267 339.816 Z M 254.729 118.989 C 245.761 119.805 239.688 127.828 239.253 136.479 L 257.959 135.77 C 262.99 135.792 268.265 135.574 273.228 136.446 L 272.741 132.259 C 271.231 124.424 262.563 118.355 254.729 118.989 Z" style=""/>
    <path d="M 249.767 244.526 C 250.441 244.36 263.707 243.444 263.966 243.544 C 264.572 249.328 265.839 261.814 261.887 266.428 C 259.313 269.433 255.083 270.115 252.195 267.206 C 249.41 264.399 249.509 259.841 249.459 256.143 L 249.767 244.526 Z" style="fill: rgb(130, 211, 247);"/>
    <path d="M 252.474 99.062 C 270.952 97.411 285.152 107.911 290.255 125.613 C 290.958 128.054 291.97 136.076 290.605 137.679 L 286.774 136.547 C 280.524 116.562 271.407 110.236 257.364 108.566 C 234.459 107.482 225.36 132.578 226.216 136.945 C 226.216 136.945 221.916 137.808 221.467 137.15 C 220.741 118.294 233.365 101.424 252.474 99.062 Z" style="fill: rgb(0, 117, 255);"/>
    <path d="M 87.267 339.816 C 96.763 338.933 94.43 336.281 98.339 331.012 L 98.529 330.754 C 101.404 326.941 106.682 324.223 111.39 323.645 L 114.988 323.374 L 107.38 416.823 C 97.485 412.536 89.823 402.953 89.165 391.998 C 88.972 388.769 89.652 385.289 90.017 382.091 L 91.303 369.738 C 91.971 363.147 93.869 357.867 85.385 355.15 C 85.082 353.213 86.423 342.013 87.267 339.816 Z" style="fill: rgb(130, 211, 247);"/>
    <path d="M 249.852 244.464 L 249.614 244.025 C 245.261 235.091 237.998 237.297 235.825 245.845 L 235.783 246.017 C 229.583 246.539 222.623 246.737 216.452 245.962 C 194.59 243.219 176.791 223.948 171.874 203.118 C 169.282 192.137 170.281 183.983 169.096 173.684 L 169.067 173.452 C 169.254 173.132 169.464 172.89 169.728 172.635 C 189.272 153.733 239.457 150.331 264.82 150.848 L 274.456 151.51 C 295.129 152.951 320.62 156.423 338.083 168.656 C 341.92 171.345 344.081 171.703 344.099 176.117 L 343.883 186.957 C 341.986 215.799 327 241.528 296.729 245.906 C 294.757 246.192 279.366 247.073 278.237 245.775 C 276.444 235.08 265.328 238.668 264.05 243.183 L 263.966 243.544 C 263.707 243.444 250.441 244.36 249.852 244.464 Z" style="fill: rgb(130, 211, 247);"/>
    <path d="M 126.92 441.175 C 127.38 438.543 125.831 435.368 125.084 432.85 C 122.841 425.289 122.482 419.979 122.94 412.024 L 132.801 298.564 L 141.144 245.125 C 144.469 227.963 147.951 210.878 155.731 195.076 C 156.205 208.745 162.751 225.743 171.177 236.157 C 182.818 250.543 202.001 260.827 220.643 261.301 C 225.151 261.415 229.714 261.137 234.202 261.598 C 234.352 262.076 234.501 262.551 234.571 263.049 C 236.077 273.677 244.231 282.184 254.986 283.641 C 266.271 285.169 276.97 274.619 278.984 264.007 C 279.338 262.136 278.682 261.4 280.68 261.363 L 292.737 261.268 C 329.677 259.151 353.579 230.514 358.004 195.565 C 362.87 205.785 365.92 216.902 368.613 227.857 L 373.995 253.926 C 375.373 261.544 374.263 267.841 383.916 269.736 L 384.114 269.774 C 384.24 275.974 385.052 282.325 386.986 288.229 C 380.476 292.221 380.572 292.668 381.747 298.994 L 384.428 329.354 C 384.528 330.635 384.555 331.928 384.853 333.182 L 384.917 333.456 C 385.696 336.588 389.57 338.322 392.471 338.791 L 394.222 355.52 C 386.929 358.594 386.142 360.177 386.837 367.593 L 389.522 397.608 C 390.166 403.95 390.889 410.258 390.955 416.638 C 391.156 436.044 379.275 449.719 359.526 451.82 C 354.011 452.407 353.261 453.923 352.217 459.687 L 338.453 459.716 C 338.068 457.705 338.384 455.921 337.193 454.103 C 333.994 449.218 325.416 451.407 320.601 451.515 L 158.409 451.617 C 149.006 451.663 150.256 449.154 143.318 447.66 L 143.039 447.604 C 139.462 446.851 136.194 450.401 134.744 451.995 C 134.079 452.05 126.969 443.274 126.48 442.183 L 126.92 441.175 Z" style="fill: rgb(0, 117, 255);"/>
    <path fill="#042953" d="M 307.175 308.437 L 307.186 308.139 C 307.267 306.117 307.801 304.604 309.325 303.205 C 318.077 295.172 332.487 307.131 335.081 316.501 L 335.27 317.08 C 335.793 318.541 335.758 320.093 335.787 321.627 L 335.83 403.429 C 335.834 407.019 336.021 410.704 335.774 414.281 C 334.991 425.655 324.692 434.268 313.667 434.793 L 208.043 434.837 C 203.742 434.835 199.276 435.067 195.104 433.859 C 185.814 431.169 178.223 423.955 177.348 414.056 C 176.897 408.953 177.243 403.533 177.247 398.404 L 177.227 325.886 C 177.217 315.155 179.234 308.954 189.577 303.167 C 192.305 301.642 196.425 299.636 199.644 300.435 C 203.206 301.321 205.514 305.604 205.661 309.069 L 206.339 309.326 C 208.149 309.812 210.095 309.807 211.96 309.847 L 298.292 309.605 C 301.278 309.462 304.224 308.879 307.175 308.437 Z" style=""/>
    <path d="M 307.175 308.437 C 310.106 319.333 318.941 314.171 320.583 320.067 C 321.188 322.24 320.828 325.33 320.828 327.605 L 320.751 339.88 C 319.939 340.521 319.09 340.659 318.166 341.044 L 312.903 343.406 C 302.372 347.653 291.145 351.303 280.042 353.702 L 264.363 356.53 C 264.464 352.779 264.675 348.968 261.896 346.019 C 258.751 342.682 254.597 343.211 251.538 346.502 C 248.885 349.354 249.464 352.475 249.528 356.064 C 233.018 354.3 207.85 347.536 192.442 339.904 C 192.226 339.268 192.302 338.507 192.297 337.838 L 192.317 325.884 C 192.394 312.127 197.142 319.369 203.011 314.031 C 204.427 312.742 205.078 310.841 205.661 309.069 L 206.339 309.326 C 208.149 309.812 210.095 309.807 211.96 309.847 L 298.292 309.605 C 301.278 309.462 304.224 308.879 307.175 308.437 Z" style="fill: rgb(130, 211, 247);"/>
    <path d="M 320.478 355.862 L 320.883 403.114 C 320.909 409.713 322.291 417.819 313.858 419.848 L 313.532 419.923 C 312.909 420.076 312.341 420.193 311.698 420.203 L 203.588 420.188 C 194.828 420.188 192.359 415.77 192.317 407.621 L 192.296 400.949 L 192.276 360.885 C 192.275 356.255 191.118 355.966 194.743 357.2 L 197.939 358.414 C 210.013 363.065 235.274 370.915 248.596 370.582 L 249.455 372.526 C 252.576 378.195 260.909 377.27 264.345 372.392 C 266.255 369.681 265.552 370.855 269.008 370.526 L 277.331 369.328 C 291.287 366.863 307.891 362.785 320.478 355.862 Z" style="fill: rgb(130, 211, 247);"/>
  </g>
</svg>