<?xml version="1.0" encoding="utf-8"?>
<svg viewBox="164.3775 -7.4453 507.4005 498.2903" xmlns="http://www.w3.org/2000/svg">
  <path fill="#FDE047" d="M 275.441 108.592 C 277.106 108.879 279.041 108.585 280.744 108.565 L 291.848 108.667 C 304.776 122.779 301.147 133.328 299.879 150.427 L 299.145 163.717 C 298.201 174.239 294.836 174.691 284.354 174.661 C 273.84 174.632 269.359 176.002 268.995 164.319 L 268.637 155.217 C 267.605 140.122 262.345 123.368 273.115 111.342 C 273.787 110.592 274.85 109.801 275.295 108.902 L 275.441 108.592 Z"/>
  <path d="M 183.756 424.29 L 182.772 424.071 C 179.816 423.294 176.642 421.097 175.109 418.404 L 174.932 418.081 C 172.336 413.488 175.594 405.258 176.453 400.467 C 185.273 351.28 202.166 337.998 249.348 320.757 L 257.16 318.103 C 263.596 316.132 266.273 317.379 270.564 322.786 C 274.141 335.039 256.817 338.571 248.526 341.6 C 213.493 354.397 200.662 368.172 195.184 405.077 C 193.978 413.197 194.165 423.447 183.756 424.29 Z"/>
  <path d="M 275.441 108.584 C 273.336 102.414 273.645 96.245 273.637 89.812 L 273.629 70.316 C 269.634 67.806 263.954 68.276 260.308 62.355 L 260.127 62.067 C 259.316 60.732 259.042 59.257 259.076 57.717 L 259.079 57.339 C 259.177 53.136 262.366 49.971 265.999 48.366 L 411.014 -6.296 C 417.216 -8.222 420.886 -7.553 426.982 -5.579 L 570.094 47.675 C 576.26 50.34 580.178 56.556 575.967 62.94 L 575.838 63.147 C 572.814 67.838 564.449 69.695 559.613 71.635 L 547.068 76.869 C 538.919 80.129 530.048 83.324 522.554 87.884 C 524.154 95.599 524.905 103.518 524.882 111.39 C 524.813 134.761 510.196 120.806 514.294 140.726 C 532.162 151.763 534.153 175.44 527.94 193.868 C 526.997 196.663 525.855 199.556 524.251 202.049 L 523.699 202.873 C 521.932 205.522 519.723 207.952 517.119 209.793 L 516.753 210.057 C 515.051 211.269 513.056 212.325 511.052 212.92 C 508.209 213.764 507.89 212.851 507.119 215.717 L 505.116 223.202 C 500.282 238.687 492.208 256.683 479.681 267.145 C 482.099 271.133 483.833 275.66 485.99 279.819 C 489.736 287.043 489.622 284.205 497.449 286.613 C 504.309 288.723 511.058 291.604 517.732 294.244 L 557.756 310.217 C 579.619 318.593 602.885 324.438 623.109 336.547 C 649.691 352.463 655.671 374.911 659.999 404.043 L 669.243 466.572 C 669.808 470.31 672.732 480.867 671.461 484.217 L 671.34 484.563 C 668.671 490.687 664.017 490.844 658.671 490.845 L 172.744 490.842 C 169.297 490.768 165.047 485.099 164.551 482.037 C 164.013 478.724 164.839 475.215 165.491 471.973 L 166.561 466.146 C 167.917 459.371 167.982 449.796 176.994 449.096 L 179.878 449.177 C 179.488 443.136 180.992 429.643 183.756 424.29 C 194.165 423.447 193.978 413.197 195.184 405.077 C 200.662 368.172 213.493 354.397 248.526 341.6 C 256.817 338.571 274.141 335.039 270.564 322.786 C 273.022 319.507 285.735 316.406 290.379 313.787 C 289.479 305.387 294.627 303.943 301.233 301.467 L 310.382 298.028 C 322.091 293.756 333.658 289.273 345.724 286.143 C 350.914 284.797 353.867 275.7 355.419 271.241 C 356.454 268.272 356.178 268.392 354.255 265.945 L 343.682 250.791 C 336.386 239.06 331.755 226.906 328.259 213.563 C 327.781 213.343 327.975 213.391 327.493 213.315 C 304.877 209.785 299.852 167.234 309.213 150.734 C 312.072 145.694 321.922 137.65 321.9 133.694 L 321.891 133.342 C 321.813 128.281 316.75 126.318 313.963 122.966 C 311.446 119.939 313.242 99.675 313.709 95.376 L 314.76 88.034 C 308.564 84.928 297.81 81.629 292.723 78.478 L 292.347 96.308 C 292.292 100.49 291.84 104.606 291.848 108.771 L 280.744 108.565 C 279.041 108.585 277.106 108.879 275.441 108.584 Z"/>
  <path fill="#F3151B" d="M 407.186 351.217 L 426.587 351.691 C 429.815 351.72 429.123 351.703 427.8 355.109 L 426.069 359.048 C 425.875 360.155 425.636 360.602 425.234 361.22 L 410.701 361.065 C 408.609 359.564 407.198 353.785 406.443 351.467 L 407.186 351.217 Z"/>
  <path fill="#FDE047" d="M 493.018 307.351 L 508.91 313.245 C 508.047 314.591 506.722 315.784 505.68 317.01 L 467.737 361.574 L 465.177 359.1 C 459.199 352.994 453.02 346.924 446.118 341.863 L 493.018 307.351 Z"/>
  <path fill="#FDE047" d="M 343.671 307.095 C 345.643 307.091 346.203 307.988 347.738 309.197 L 381.731 334.562 C 384.865 337.024 387.945 339.57 390.814 342.339 L 372.246 358.516 L 369.085 361.719 L 327.774 313.576 C 328.367 312.921 330.45 312.338 331.357 311.969 L 343.671 307.095 Z"/>
  <path fill="#F8AFAF" d="M 371.278 280.429 C 396.489 304.67 438.173 304.616 464.912 282.452 C 466.271 287.595 469.531 292.155 472.393 296.559 L 458.185 307.271 L 440.964 320.13 C 437.393 322.928 434.145 326.303 430.128 328.456 C 418.207 334.845 407.635 327.939 397.939 321.183 L 381.34 309.118 C 375.588 304.916 369.408 300.85 364.012 296.222 C 368.057 291.991 370.737 286.246 371.278 280.429 Z"/>
  <path fill="#FDE047" d="M 386.857 443.901 C 396.357 437.662 395.833 441.015 400.2 428.875 L 412.389 391.362 C 413.588 387.724 414.66 384.008 416.082 380.453 C 423.627 380.72 422.531 385.893 424.898 392.916 L 432.248 414.311 C 435.705 425.269 436.924 439.252 449.364 443.582 C 449.219 447.211 450.901 451.315 452.104 454.697 L 456.228 465.553 C 457.41 468.339 458.978 471.188 459.512 474.191 L 377.487 474.103 L 385.177 451.092 C 385.83 448.94 387.074 446.132 386.857 443.901 Z"/>
  <path d="M 416.106 12.641 C 419.077 12.223 422.376 13.441 425.194 14.315 L 526.452 52.213 C 531.157 54.102 536.562 55.837 540.837 58.509 L 522.053 66.703 C 517.651 68.622 496.494 76.33 496.494 82.337 C 503.535 82.485 506.173 105.858 506.108 110.714 C 504.374 112.736 496.682 117.116 493.39 115.815 L 488.955 114.109 C 460.047 103.867 445.183 117.47 419.928 121.284 C 404.331 122.753 385.511 107.977 363.056 110.518 C 356.649 111.243 344.713 114.295 338.875 116.927 L 338.256 116.633 C 338 114.903 337.453 114.853 335.939 114.117 C 329.319 110.9 330.513 109.777 331.717 102.92 C 333.558 92.436 334.878 88.987 341.147 80.69 C 336.495 74.821 328.169 72.286 321.566 69.397 L 303.099 61.33 C 300.695 60.316 298.233 59.505 295.93 58.262 C 299.576 55.787 304.104 54.205 308.2 52.604 L 403.708 16.693 C 407.786 15.245 411.887 13.629 416.106 12.641 Z" style="fill: rgb(0, 117, 255);"/>
  <path fill="#F8AFAF" d="M 368.279 129.904 C 381.24 128.173 401.715 139.999 417.742 140.326 C 435.226 140.682 451.705 129.464 466.103 129.741 C 483.226 130.071 485.301 155.153 491.892 161.578 C 497.376 166.925 512.185 150.318 511.889 174.958 C 511.559 202.381 498.438 189.313 492.745 198.772 C 491.383 201.034 490.823 203.905 490.155 206.436 L 487.589 215.377 C 481.832 233.653 472.635 248.32 458.979 261.612 C 444.344 274.822 426.273 283.909 406.083 278.215 C 379.958 270.847 359.62 245.467 350.349 221.123 L 344.863 203.35 C 339.535 185.333 324.098 207.009 323.577 171.342 C 323.554 169.741 323.433 167.964 323.956 166.427 L 324.081 166.092 C 326.544 159.242 333.078 161.032 338.597 161.943 C 353.657 164.428 347.51 136.124 368.279 129.904 Z"/>
  <path d="M 449.364 443.582 L 449.651 443.52 C 455.091 442.295 459.357 435.601 458.017 430.17 C 456.982 425.978 455.019 421.812 453.604 417.728 L 445.9 394.139 C 443.877 387.806 441.564 381.35 440.395 374.8 C 442.38 372.055 444.421 369.005 445.469 365.756 C 447.614 368.416 449.957 370.867 452.313 373.339 C 466.614 388.338 473.283 386.675 486.192 370.914 L 527.865 319.016 L 560.732 332.278 C 586.243 341.263 621.98 348.57 633.424 376.387 C 635.681 381.875 637.003 387.789 638.097 393.602 L 649.094 467.609 C 649.351 469.667 649.381 472.098 649.93 474.086 L 561.915 474.046 L 561.787 456.722 C 561.782 454.659 562.131 451.786 561.597 449.845 C 559.175 441.035 546.19 441.588 544.643 450.592 C 544.142 453.505 544.54 456.884 544.582 459.862 L 544.637 474.134 L 465.913 474.132 C 463.954 474.134 461.378 474.454 459.512 474.099 C 458.978 471.188 457.41 468.339 456.228 465.553 L 452.104 454.697 C 450.901 451.315 449.219 447.211 449.364 443.582 Z" style="fill: rgb(0, 117, 255);"/>
  <path d="M 270.564 322.786 C 273.022 319.507 285.735 316.406 290.379 313.787 C 295.333 327.955 307.677 319.939 309.147 320.639 C 309.443 320.78 315.198 328.461 315.916 329.345 L 347.52 366.768 C 353.576 374.569 360.704 387.23 372.663 382.967 C 380.117 380.31 385.382 371.169 390.808 365.684 C 398.623 377.831 395.465 379.445 391.345 392.592 L 379.789 428.992 C 377.606 436.252 379.116 440.606 386.857 443.901 C 387.074 446.132 385.83 448.94 385.177 451.092 L 377.487 474.143 C 375.124 474.41 372.332 474.111 369.928 474.11 L 292.625 474.088 C 292.143 472.802 292.35 470.702 292.342 469.314 L 292.31 459.675 C 292.292 455.089 292.863 450.021 289.608 446.333 C 284.899 440.995 276.321 443.431 274.778 450.387 C 274.294 452.569 274.602 455.43 274.595 457.689 L 274.58 474.08 C 272.056 474.471 268.995 474.126 266.422 474.115 L 185.256 474.097 C 185.066 473.384 185.353 472.251 185.421 471.493 L 186.44 461.95 C 187.107 455.358 186.033 452.614 179.878 449.177 C 179.488 443.136 180.992 429.643 183.756 424.29 C 194.165 423.447 193.978 413.197 195.184 405.077 C 200.662 368.172 213.493 354.397 248.526 341.6 C 256.817 338.571 274.141 335.039 270.564 322.786 Z" style="fill: rgb(0, 117, 255);"/>
</svg>