<?xml version="1.0" encoding="utf-8"?>
<svg viewBox="10.337 6.104 493.076 501.542" xmlns="http://www.w3.org/2000/svg">
  <path d="M 10.337 488.893 L 10.337 6.104 L 244.925 6.104 L 274.119 6.104 L 503.413 6.104 L 503.413 493.548 L 503.413 501.851 L 503.413 507.646 L 497.124 507.646 L 443.725 507.646 L 416.681 507.646 L 16.577 507.646 L 10.337 507.646 L 10.337 502.131 L 10.337 488.893 Z M 10.337 488.893 C 13.342 481.225 10.442 465.197 22.061 464.736 C 21.046 458.406 25.117 438.273 27.175 432.096 C 36.391 432.248 37.696 431.023 39.515 422.515 C 46.557 389.578 62.27 374.905 89.812 360.218 C 96.132 356.847 101.252 353.409 97.185 345.621 C 102.824 343.066 108.137 340.331 114.112 338.597 C 114.753 335.797 113.683 333.491 115.221 329.482 C 120.587 324.181 152.992 315.262 160.347 313.554 C 167.986 311.778 176.276 311.94 182.854 307.073 L 183.202 306.812 C 192.974 299.576 195.144 287.136 195.608 275.578 C 195.74 272.315 196.192 271.615 194.119 269.158 L 190.468 264.8 C 179.234 251.15 170.145 236.982 162.908 220.664 C 160.378 214.959 159.504 209.683 155.071 205.163 C 143.779 193.649 136.777 176.65 136.718 160.343 C 136.696 154.746 137.092 149.555 140.347 144.813 L 140.587 144.469 C 143.095 140.795 147.135 137.888 151.227 136.31 L 146.491 107.009 C 143.488 83.755 145.914 63.849 162.738 47.037 C 165.223 44.553 168.013 41.793 171.024 40.001 L 171.33 39.821 C 175.631 37.205 178.663 38.64 182.164 41.904 C 185.917 38.447 191.322 35.417 195.831 33.183 L 194.728 29.55 C 194.011 26.926 193.47 25.851 194.875 23.406 C 199.962 14.554 227.365 9.401 237.198 7.434 C 239.649 6.944 242.169 6.833 244.586 6.196 L 244.925 6.104 L 10.337 6.104 L 10.337 488.893 Z M 274.119 6.104 L 274.441 6.199 C 277.204 6.981 280.347 7.078 283.2 7.522 L 297.84 10.337 C 321.017 15.594 346.927 28.44 359.006 49.856 L 361.573 54.774 C 369.429 70.744 369.378 92.024 366.854 109.506 L 362.183 135.725 L 367.734 138.918 C 387.951 152.634 373.179 192.689 358.604 204.862 C 355.45 207.497 355.048 208.961 353.736 212.843 L 350.771 220.743 C 345.141 234.346 337.778 247.39 328.43 258.712 L 320.26 268.35 C 317.514 271.552 317.559 270.491 318.028 274.63 C 319.682 289.236 321.488 305.176 337.507 310.757 C 341.05 311.992 344.951 312.182 348.592 313.07 L 368.416 318.715 C 378.154 321.576 387.817 324.693 397.275 328.415 L 426.635 341.408 C 449.927 352.081 469.405 361.936 481.493 386.393 L 483.828 391.058 C 492.051 407.566 492.837 426.376 495.469 444.341 L 502.531 489.497 C 502.809 490.854 502.909 492.248 503.413 493.548 L 503.413 6.104 L 274.119 6.104 Z M 420.899 498.84 C 420.908 500.325 420.881 501.368 420.23 502.74 L 420.049 503.129 C 419.216 504.859 418 506.285 416.681 507.646 L 443.725 507.646 C 441.66 505.448 440.182 503.266 438.836 500.334 L 438.451 499.828 C 436.046 499.383 433.365 499.618 430.921 499.587 L 420.899 498.84 Z M 10.337 502.131 L 10.337 507.646 L 16.577 507.646 L 10.337 502.131 Z M 503.413 501.851 C 501.49 504.197 499.415 505.742 497.124 507.646 L 503.413 507.646 L 503.413 501.851 Z" style="" transform="matrix(0.9999999999999999, 0, 0, 0.9999999999999999, -5.684341886080802e-14, 0)"/>
  <path d="M 257.621 362.771 L 260.522 362.7 C 265.803 362.715 268.679 365.668 272.165 369.225 C 267.872 376.734 265.073 380.907 256.452 380.357 C 242.421 379.354 249.728 375.121 241.075 368.674 L 240.724 368.414 C 246.111 364.644 251.126 363.109 257.621 362.771 Z" style="fill: rgb(243, 21, 27);" transform="matrix(0.9999999999999999, 0, 0, 0.9999999999999999, -5.684341886080802e-14, 0)"/>
  <path fill="#F8AFAF" d="M 282.522 155.787 C 283.319 155.482 284.507 155.588 285.362 155.567 L 306.338 155.548 C 309.484 155.553 312.755 155.371 315.865 155.882 C 315.601 162.023 315.453 170.377 309.361 173.456 C 304.594 175.194 293.364 175.847 288.067 174.483 L 284.718 173.489 C 280.559 171.722 276.462 160.516 277.636 157.75 C 278.71 156.815 279.786 156.369 281.157 156.066 L 282.522 155.787 Z" style="" transform="matrix(0.9999999999999999, 0, 0, 0.9999999999999999, -5.684341886080802e-14, 0)"/>
  <path fill="#F8AFAF" d="M 197.389 155.266 C 205.088 155.109 230.319 154.536 236.102 157.328 C 236.718 161.318 234.237 167.978 232.134 171.091 C 229.567 173.856 225.414 174.809 221.831 174.915 L 213.712 174.923 C 199.443 174.719 197.727 169.972 197.389 155.266 Z" style="" transform="matrix(0.9999999999999999, 0, 0, 0.9999999999999999, -5.684341886080802e-14, 0)"/>
  <path fill="#FDE047" d="M 256.487 400.26 L 256.877 400.286 C 258.527 402.717 258.909 407.915 259.371 410.787 L 271.148 491.113 L 257.236 491.139 L 242.646 491.155 L 254.069 409.682 C 254.598 406.803 254.955 402.729 256.487 400.26 Z" style="" transform="matrix(0.9999999999999999, 0, 0, 0.9999999999999999, -5.684341886080802e-14, 0)"/>
  <path d="M 315.219 319.337 C 321.119 324.288 328.45 327.969 335.672 330.476 L 316.866 375.483 L 293.896 359.981 C 286.21 354.363 278.72 347.98 270.348 343.453 C 271.605 342.154 273.574 341.467 275.219 340.799 L 282.315 337.825 L 308.09 324.333 C 310.654 322.827 313.092 321.466 315.219 319.337 Z" style="fill: rgb(0, 117, 255);" transform="matrix(0.9999999999999999, 0, 0, 0.9999999999999999, -5.684341886080802e-14, 0)"/>
  <path d="M 196.879 320.673 L 228.45 336.644 C 232.364 338.668 239.715 340.906 241.773 345.231 L 197.403 376.292 L 176.921 330.295 C 183.873 327.607 190.643 324.891 196.879 320.673 Z" style="fill: rgb(0, 117, 255);" transform="matrix(0.9999999999999999, 0, 0, 0.9999999999999999, -5.684341886080802e-14, 0)"/>
  <path fill="#F8AFAF" d="M 196.879 320.673 C 208.325 311.503 211.52 299.684 213.616 285.334 C 240.226 303.804 272.881 304.278 300.017 285.791 C 300.386 286.449 300.432 287.328 300.573 288.076 L 301.562 293.078 C 303.659 302.877 307.73 312.548 315.219 319.337 C 313.092 321.466 310.654 322.827 308.09 324.333 L 282.315 337.825 L 275.219 340.799 C 273.574 341.467 271.605 342.154 270.348 343.453 C 253.945 336.002 251.214 347.951 245.111 348.201 C 243.841 347.311 242.829 346.372 241.773 345.231 C 239.715 340.906 232.364 338.668 228.45 336.644 L 196.879 320.673 Z" style="" transform="matrix(0.9999999999999999, 0, 0, 0.9999999999999999, -5.684341886080802e-14, 0)"/>
  <path fill="#F8AFAF" d="M 269.905 89.347 C 271.444 93.694 275.69 98.448 280.709 97.625 C 283.851 97.108 286.683 94.528 289.6 93.183 C 294.194 91.064 299.487 88.968 304.372 87.652 C 314.305 84.975 322.559 92.361 325.215 101.594 C 326.645 106.562 326.652 111.443 326.662 116.58 L 326.694 132.078 C 326.712 134.495 326.453 137.752 327.345 139.98 L 327.911 141.522 C 318.329 138.764 311.886 139.833 301.982 139.838 L 289.942 139.857 C 284.951 139.88 280.831 140.29 276.124 142.109 C 273.617 143.078 271.096 144.496 268.483 145.107 C 265.098 145.896 250.423 145.489 247.564 144.753 L 234.455 140.611 C 231.35 139.501 227.276 139.836 224.004 139.824 L 211.886 139.794 C 202.378 139.78 193.946 139.441 184.699 142.06 C 188.524 126.077 184.781 103.574 198.719 92.163 C 209.331 83.476 219.333 87.446 229.895 93.239 C 238.279 97.838 247.702 100.915 248.755 87.711 C 252.03 88.739 255.764 88.19 259.148 88.522 C 262.496 88.851 266.612 90.489 269.905 89.347 Z" style="" transform="matrix(0.9999999999999999, 0, 0, 0.9999999999999999, -5.684341886080802e-14, 0)"/>
  <path fill="#FDE047" d="M 195.831 33.183 C 197.709 35.873 201.265 37.506 204.51 36.785 L 204.867 36.711 C 208.063 36.001 211.215 34.39 214.296 33.246 C 254.341 18.381 337.593 24.07 348.507 73.657 C 350.841 84.268 350.39 106.903 345.869 117.426 L 344.075 103.062 C 340.903 83.735 326.828 65.387 305.868 68.934 C 301.786 69.625 295.097 71.899 293.719 76.498 C 293.466 77.344 294.046 78.593 293.527 79.364 C 288.22 80.344 278.41 78.73 275.817 79.458 C 272.272 80.457 269.011 85.048 269.754 88.809 L 269.905 89.347 C 266.612 90.489 262.496 88.851 259.148 88.522 C 255.764 88.19 252.03 88.739 248.755 87.876 C 247.773 81.396 243.315 80.849 238.152 78.509 C 220.739 70.618 209.64 63.958 191.749 76.44 C 176.695 86.943 171.822 104.766 168.609 121.941 L 167.022 117.627 C 164.106 108.389 162.635 90.192 164.318 80.773 C 166.2 70.244 172.288 62.706 179.802 55.776 C 186.172 49.903 187.056 49.564 182.164 41.904 C 185.917 38.447 191.322 35.417 195.831 33.183 Z" style="" transform="matrix(0.9999999999999999, 0, 0, 0.9999999999999999, -5.684341886080802e-14, 0)"/>
  <path fill="#F8AFAF" d="M 159.107 153.315 L 160.351 153.236 C 164.375 153.169 166.961 157.599 169.524 160.147 C 172.484 163.088 178.533 162.132 182.467 162.088 C 182.766 174.764 189.045 184.929 201.398 188.662 C 217.666 193.58 239.232 191.25 247.458 173.896 C 251.6 165.157 249.133 164.415 259.782 165.595 C 263.95 166.058 262.283 165.826 263.491 169.501 C 268.9 185.955 281.692 190.536 297.102 190.518 C 317.855 190.492 329.477 183.477 331.173 161.494 C 338.763 162.678 341.586 164.202 346.005 157.669 C 349.082 153.121 355.329 150.827 358.114 156.823 C 361.459 164.025 355.066 180.703 349.901 185.977 C 347.683 188.242 344.11 189.1 342.251 191.501 C 340.466 193.808 339.634 197.533 338.718 200.308 C 325.478 238.878 292.577 287.821 247.004 279.723 L 245.77 279.49 C 215.51 272.826 193.601 241.978 181.04 215.185 L 175.708 202.422 C 174.643 199.534 173.807 196.046 172.264 193.408 C 171.256 191.682 168.703 190.88 167.161 189.647 C 160.355 184.206 148.965 159.324 158.83 153.475 L 159.107 153.315 Z" style="" transform="matrix(0.9999999999999999, 0, 0, 0.9999999999999999, -5.684341886080802e-14, 0)"/>
  <path d="M 420.899 499.158 C 418.609 493.357 415.875 491.097 410.154 491.092 L 302 491.117 C 297.994 491.114 293.912 491.265 289.917 491.006 L 275.279 394.53 C 279.502 389.661 284.239 385 287.256 379.212 L 305.418 390.983 C 327.651 405.164 327.133 397.794 335.516 378.681 L 353.188 337.2 C 353.467 336.507 353.952 334.814 354.487 334.38 L 395.244 348.735 L 420.86 359.985 C 461.627 378.895 468.755 391.087 475.379 437.736 L 482.949 491.149 L 450.375 491.064 C 444.687 490.939 438.965 493.183 438.834 500.101 L 438.836 500.546 L 438.451 499.828 C 436.046 499.383 433.365 499.618 430.921 499.587 L 420.899 499.158 Z" style="fill: rgb(0, 117, 255);" transform="matrix(0.9999999999999999, 0, 0, 0.9999999999999999, -5.684341886080802e-14, 0)"/>
  <path d="M 114.112 338.597 L 114.244 338.791 C 121.123 348.507 130.398 342.417 139.162 339.671 L 158.742 334.263 C 160.828 341.182 164.677 347.81 167.54 354.467 L 179.27 381.754 C 186.242 397.271 187.748 403.338 205.734 392.425 L 226.692 379.273 C 228.859 382.769 231.167 386.065 233.775 389.234 C 236.591 392.655 237.812 392.205 237.279 396.644 L 223.696 486.751 C 223.559 487.906 223.69 489.863 223.309 490.848 L 29.548 491.12 L 30.485 481.897 C 31.633 472.892 33.098 467.114 22.055 464.736 C 21.046 458.406 25.117 438.273 27.175 432.096 C 36.391 432.248 37.696 431.023 39.515 422.515 C 46.557 389.578 62.27 374.905 89.812 360.218 C 96.132 356.847 101.252 353.409 97.185 345.621 C 102.824 343.066 108.137 340.331 114.112 338.597 Z" style="fill: rgb(0, 117, 255);" transform="matrix(0.9999999999999999, 0, 0, 0.9999999999999999, -5.684341886080802e-14, 0)"/>
  <path d="M 27.175 432.096 L 26.968 432.005 C 20.117 428.869 19.845 423.615 21.239 417.1 C 28.176 384.66 48.612 358.628 78.569 344.914 C 89.161 340.065 88.601 337.666 97.185 345.621 C 101.252 353.409 96.132 356.847 89.812 360.218 C 62.27 374.905 46.557 389.578 39.515 422.515 C 37.696 431.023 36.391 432.248 27.175 432.096 Z" style="" transform="matrix(0.9999999999999999, 0, 0, 0.9999999999999999, -5.684341886080802e-14, 0)"/>
</svg>