<?xml version="1.0" standalone="no"?>
<!DOCTYPE svg PUBLIC "-//W3C//DTD SVG 20010904//EN"
 "http://www.w3.org/TR/2001/REC-SVG-20010904/DTD/svg10.dtd">
<svg version="1.0" xmlns="http://www.w3.org/2000/svg"
 width="180.000000pt" height="180.000000pt" viewBox="0 0 180.000000 180.000000"
 preserveAspectRatio="xMidYMid meet">
<metadata>
Created by potrace 1.11, written by Peter Selinger 2001-2013
</metadata>
<g transform="translate(0.000000,180.000000) scale(0.100000,-0.100000)"
fill="#000000" stroke="none">
<path d="M0 900 l0 -900 900 0 900 0 0 900 0 900 -900 0 -900 0 0 -900z m1500
0 l0 -600 -600 0 -600 0 0 600 0 600 600 0 600 0 0 -600z"/>
<path d="M450 900 l0 -450 450 0 450 0 0 450 0 450 -450 0 -450 0 0 -450z
m300 150 l0 -150 -75 0 -75 0 0 150 0 150 75 0 75 0 0 -150z m450 0 l0 -150
-75 0 -75 0 0 150 0 150 75 0 75 0 0 -150z m-150 -375 l0 -75 -150 0 -150 0 0
75 0 75 150 0 150 0 0 -75z"/>
</g>
</svg>
